<?xml version="1.0" standalone="yes"?>
<svg width="398" height="398">
<path style="fill:#a20b0b; stroke:none;" d="M0 0L0 398L398 398L398 0L0 0z"/>
<path style="fill:#620707; stroke:none;" d="M228 2L228 3L234 3L228 2z"/>
<path style="fill:#5d0606; stroke:none;" d="M234 3L234 4L239 4L234 3z"/>
<path style="fill:#510606; stroke:none;" d="M240 4L240 5L244 5L240 4z"/>
<path style="fill:#540606; stroke:none;" d="M244 5L244 6L248 6L244 5z"/>
<path style="fill:#510606; stroke:none;" d="M248 6L248 7L252 7L248 6z"/>
<path style="fill:#580606; stroke:none;" d="M242 10L242 11L245 12L242 10z"/>
<path style="fill:#510606; stroke:none;" d="M75 50L78 48L75 50M332 51L335 53L332 51z"/>
<path style="fill:#540606; stroke:none;" d="M49 75L48 78L49 75M348 75L350 78L348 75z"/>
<path style="fill:#5d0606; stroke:none;" d="M298 97L298 101L299 101L298 97z"/>
<path style="fill:#6c0707; stroke:none;" d="M299 122L299 136L300 136L299 122z"/>
<path style="fill:#5d0606; stroke:none;" d="M98 130L98 136L99 136L98 130z"/>
<path style="fill:#510606; stroke:none;" d="M12 144L12 148L13 148L12 144z"/>
<path style="fill:#540606; stroke:none;" d="M100 145L100 150L101 150L100 145M297 145L297 150L298 150L297 145M9 156L9 160L10 160L9 156M388 156L388 160L389 160L388 156z"/>
<path style="fill:#5d0606; stroke:none;" d="M8 160L8 165L9 165L8 160M389 160L389 165L390 165L389 160z"/>
<path style="fill:#5c0606; stroke:none;" d="M7 166L7 171L8 171L7 166M390 166L390 171L391 171L390 166z"/>
<path style="fill:#650707; stroke:none;" d="M0 179L0 188L1 188L0 179M397 179L397 188L398 188L397 179z"/>
<path style="fill:#540606; stroke:none;" d="M5 180L5 197L6 197L5 180z"/>
<path style="fill:#590606; stroke:none;" d="M392 180L392 197L393 197L392 180z"/>
<path style="fill:#5b0606; stroke:none;" d="M5 201L5 215L6 215L5 201z"/>
<path style="fill:#580606; stroke:none;" d="M392 201L392 215L393 215L392 201z"/>
<path style="fill:#620707; stroke:none;" d="M2 228L2 234L3 234L2 228M395 228L395 234L396 234L395 228z"/>
<path style="fill:#5d0606; stroke:none;" d="M3 234L3 239L4 239L3 234M394 234L394 239L395 239L394 234z"/>
<path style="fill:#510606; stroke:none;" d="M4 240L4 244L5 244L4 240z"/>
<path style="fill:#540606; stroke:none;" d="M216 240L216 241L220 241L216 240z"/>
<path style="fill:#510606; stroke:none;" d="M393 240L393 244L394 244L393 240z"/>
<path style="fill:#560606; stroke:none;" d="M210 241L210 242L215 242L210 241z"/>
<path style="fill:#6c0707; stroke:none;" d="M190 242L190 243L208 243L190 242z"/>
<path style="fill:#540606; stroke:none;" d="M5 244L5 248L6 248L5 244M392 244L392 248L393 248L392 244z"/>
<path style="fill:#510606; stroke:none;" d="M6 248L6 252L7 252L6 248M391 248L391 252L392 252L391 248z"/>
<path style="fill:#5a0606; stroke:none;" d="M175 270L175 271L179 271L175 270z"/>
<path style="fill:#600707; stroke:none;" d="M180 271L180 272L186 272L180 271z"/>
<path style="fill:#5d0606; stroke:none;" d="M212 271L212 272L216 272L212 271M187 272L187 273L211 273L187 272z"/>
<path style="fill:#540606; stroke:none;" d="M240 393L240 394L244 394L240 393z"/>
<path style="fill:#5a0606; stroke:none;" d="M235 394L235 395L239 395L235 394z"/>
<path style="fill:#670707; stroke:none;" d="M210 397L210 398L219 398L210 397z"/>
</svg>
